<svg width="395" height="48" viewBox="0 0 395 48" fill="none" xmlns="http://www.w3.org/2000/svg">
<path d="M6.084 5.652H10.14L28.236 38.568L46.384 5.652H50.44L30.472 42H26.052L6.084 5.652ZM71.9916 5.652H97.3156C98.6676 5.652 99.9502 5.912 101.164 6.432C102.377 6.952 103.417 7.68 104.284 8.616C105.185 9.51733 105.896 10.5747 106.416 11.788C106.936 13.0013 107.196 14.284 107.196 15.636V32.016C107.196 33.4027 106.936 34.7027 106.416 35.916C105.896 37.1293 105.185 38.1867 104.284 39.088C103.417 39.9893 102.377 40.7 101.164 41.22C99.9502 41.74 98.6676 42 97.3156 42H71.9916C70.6396 42 69.3569 41.74 68.1436 41.22C66.9302 40.7 65.8729 39.9893 64.9716 39.088C64.1049 38.1867 63.4116 37.1293 62.8916 35.916C62.3716 34.7027 62.1116 33.4027 62.1116 32.016V15.636C62.1116 14.284 62.3716 13.0013 62.8916 11.788C63.4116 10.5747 64.1049 9.51733 64.9716 8.616C65.8729 7.68 66.9302 6.952 68.1436 6.432C69.3569 5.912 70.6396 5.652 71.9916 5.652ZM65.6996 32.016C65.6996 32.8827 65.8556 33.7147 66.1676 34.512C66.5142 35.2747 66.9649 35.9507 67.5196 36.54C68.1089 37.0947 68.7849 37.5453 69.5476 37.892C70.3102 38.2387 71.1249 38.412 71.9916 38.412H97.3156C98.1822 38.412 98.9969 38.2387 99.7596 37.892C100.557 37.5453 101.233 37.0947 101.788 36.54C102.377 35.9507 102.828 35.2747 103.14 34.512C103.486 33.7147 103.66 32.8827 103.66 32.016V15.636C103.66 14.7693 103.486 13.9547 103.14 13.192C102.828 12.3947 102.377 11.7187 101.788 11.164C101.233 10.5747 100.557 10.124 99.7596 9.812C98.9969 9.46533 98.1822 9.292 97.3156 9.292H71.9916C71.1249 9.292 70.3102 9.46533 69.5476 9.812C68.7849 10.124 68.1089 10.5747 67.5196 11.164C66.9649 11.7187 66.5142 12.3947 66.1676 13.192C65.8556 13.9547 65.6996 14.7693 65.6996 15.636V32.016ZM123.606 5.652L140.454 26.712H141.026L157.874 5.652H162.71L142.534 30.56V42H138.946V30.612L118.77 5.652H123.606ZM192.08 5.652L212.048 42H207.94L189.844 9.084L171.8 42H167.692L187.66 5.652H192.08ZM222.755 32.016V15.636C222.755 14.284 223.015 13.0013 223.535 11.788C224.055 10.5747 224.748 9.51733 225.615 8.616C226.516 7.68 227.574 6.952 228.787 6.432C230 5.912 231.283 5.652 232.635 5.652H263.107L262.171 9.292H232.635C231.768 9.292 230.936 9.46533 230.139 9.812C229.376 10.124 228.7 10.5747 228.111 11.164C227.556 11.7187 227.106 12.3947 226.759 13.192C226.447 13.9547 226.291 14.7693 226.291 15.636V32.016C226.291 32.8827 226.447 33.7147 226.759 34.512C227.106 35.2747 227.556 35.9507 228.111 36.54C228.7 37.1293 229.376 37.5973 230.139 37.944C230.936 38.256 231.768 38.412 232.635 38.412H257.907C258.808 38.412 259.64 38.256 260.403 37.944C261.166 37.5973 261.842 37.1293 262.431 36.54C263.02 35.9507 263.471 35.2747 263.783 34.512C264.13 33.7147 264.303 32.8827 264.303 32.016V25.62H241.371L242.255 22.032H267.839V32.016C267.839 33.4027 267.579 34.7027 267.059 35.916C266.539 37.1293 265.828 38.1867 264.927 39.088C264.06 39.9893 263.02 40.7 261.807 41.22C260.628 41.74 259.363 42 258.011 42H232.635C231.283 42 230 41.74 228.787 41.22C227.574 40.7 226.516 39.9893 225.615 39.088C224.748 38.1867 224.055 37.1293 223.535 35.916C223.015 34.7027 222.755 33.4027 222.755 32.016ZM319.949 22.032L319.065 25.62H287.761V38.36H329.153L328.269 42H284.225V22.032H319.949ZM284.225 5.652H329.153L328.269 9.292H284.225V5.652ZM344.476 26.712H377.392C378.57 26.712 379.68 26.4867 380.72 26.036C381.76 25.5507 382.661 24.9267 383.424 24.164C384.221 23.3667 384.845 22.4307 385.296 21.356C385.746 20.2813 385.972 19.1547 385.972 17.976C385.972 16.7627 385.746 15.636 385.296 14.596C384.845 13.556 384.221 12.6373 383.424 11.84C382.661 11.0427 381.76 10.4187 380.72 9.968C379.68 9.51733 378.57 9.292 377.392 9.292H344.476V5.652H377.392C379.056 5.652 380.633 5.98133 382.124 6.64C383.614 7.264 384.897 8.148 385.972 9.292C387.081 10.4013 387.948 11.7013 388.572 13.192C389.23 14.6827 389.56 16.2773 389.56 17.976C389.56 19.6747 389.23 21.2693 388.572 22.76C387.948 24.2507 387.081 25.568 385.972 26.712C384.897 27.8213 383.614 28.7053 382.124 29.364C380.633 29.988 379.056 30.3 377.392 30.3H372.4L388.416 42H382.488L366.42 30.3H348.064V42H344.476V26.712Z" fill="#1E1E1E"/>
<path d="M6.084 5.652V3.652H2.70337L4.33109 6.61497L6.084 5.652ZM10.14 5.652L11.8926 4.68848L11.3228 3.652H10.14V5.652ZM28.236 38.568L26.4834 39.5315L28.2335 42.7149L29.9874 39.5336L28.236 38.568ZM46.384 5.652V3.652H45.2028L44.6326 4.68635L46.384 5.652ZM50.44 5.652L52.1929 6.61497L53.8206 3.652H50.44V5.652ZM30.472 42V44H31.6552L32.2249 42.963L30.472 42ZM26.052 42L24.2991 42.963L24.8688 44H26.052V42ZM6.084 7.652H10.14V3.652H6.084V7.652ZM8.38739 6.61552L26.4834 39.5315L29.9886 37.6045L11.8926 4.68848L8.38739 6.61552ZM29.9874 39.5336L48.1354 6.61764L44.6326 4.68635L26.4846 37.6024L29.9874 39.5336ZM46.384 7.652H50.44V3.652H46.384V7.652ZM48.6871 4.68903L28.7191 41.037L32.2249 42.963L52.1929 6.61497L48.6871 4.68903ZM30.472 40H26.052V44H30.472V40ZM27.8049 41.037L7.83691 4.68903L4.33109 6.61497L24.2991 42.963L27.8049 41.037ZM101.164 6.432L100.376 8.27029L100.376 8.27029L101.164 6.432ZM104.284 8.616L102.816 9.97482L102.842 10.003L102.869 10.0302L104.284 8.616ZM106.416 11.788L108.254 11.0002L108.254 11.0002L106.416 11.788ZM106.416 35.916L108.254 36.7038L108.254 36.7038L106.416 35.916ZM104.284 39.088L102.869 37.6738L102.855 37.6876L102.842 37.7018L104.284 39.088ZM101.164 41.22L101.951 43.0583L101.951 43.0583L101.164 41.22ZM64.9716 39.088L63.5299 40.4742L63.5435 40.4884L63.5574 40.5022L64.9716 39.088ZM62.8916 35.916L61.0533 36.7038L61.0533 36.7038L62.8916 35.916ZM62.8916 11.788L61.0533 11.0002L61.0533 11.0002L62.8916 11.788ZM64.9716 8.616L63.5309 7.22872L63.5299 7.22978L64.9716 8.616ZM68.1436 6.432L68.9314 8.27029L68.9314 8.27029L68.1436 6.432ZM66.1676 34.512L64.3051 35.2408L64.3246 35.2908L64.3468 35.3396L66.1676 34.512ZM67.5196 36.54L66.0632 37.9107L66.1047 37.9549L66.1488 37.9964L67.5196 36.54ZM69.5476 37.892L70.3752 36.0713L70.3752 36.0713L69.5476 37.892ZM99.7596 37.892L98.9621 36.0579L98.947 36.0644L98.932 36.0713L99.7596 37.892ZM101.788 36.54L100.373 35.1258L100.373 35.1258L101.788 36.54ZM103.14 34.512L101.305 33.7145L101.297 33.7345L101.288 33.7547L103.14 34.512ZM103.14 13.192L101.277 13.9208L101.297 13.9708L101.319 14.0196L103.14 13.192ZM101.788 11.164L100.331 12.5347L100.373 12.5789L100.417 12.6204L101.788 11.164ZM99.7596 9.812L98.932 11.6327L98.9808 11.6549L99.0308 11.6745L99.7596 9.812ZM69.5476 9.812L70.3048 11.6631L70.3403 11.6486L70.3752 11.6327L69.5476 9.812ZM67.5196 11.164L66.1054 9.74978L66.1053 9.74978L67.5196 11.164ZM66.1676 13.192L64.3334 12.3945L64.3247 12.4145L64.3165 12.4347L66.1676 13.192ZM71.9916 7.652H97.3156V3.652H71.9916V7.652ZM97.3156 7.652C98.4034 7.652 99.4174 7.8596 100.376 8.27029L101.951 4.59371C100.483 3.9644 98.9317 3.652 97.3156 3.652V7.652ZM100.376 8.27029C101.341 8.68381 102.147 9.25173 102.816 9.97482L105.751 7.25718C104.687 6.10827 103.413 5.22019 101.951 4.59371L100.376 8.27029ZM102.869 10.0302C103.584 10.7452 104.154 11.5879 104.577 12.5758L108.254 11.0002C107.637 9.56144 106.785 8.28945 105.698 7.20179L102.869 10.0302ZM104.577 12.5758C104.988 13.5341 105.196 14.5481 105.196 15.636H109.196C109.196 14.0199 108.883 12.4685 108.254 11.0002L104.577 12.5758ZM105.196 15.636V32.016H109.196V15.636H105.196ZM105.196 32.016C105.196 33.1457 104.985 34.1763 104.577 35.1282L108.254 36.7038C108.886 35.2291 109.196 33.6596 109.196 32.016H105.196ZM104.577 35.1282C104.154 36.1161 103.584 36.9588 102.869 37.6738L105.698 40.5022C106.785 39.4146 107.637 38.1426 108.254 36.7038L104.577 35.1282ZM102.842 37.7018C102.171 38.3996 101.357 38.9612 100.376 39.3817L101.951 43.0583C103.397 42.4388 104.663 41.5791 105.725 40.4742L102.842 37.7018ZM100.376 39.3817C99.4174 39.7924 98.4034 40 97.3156 40V44C98.9317 44 100.483 43.6876 101.951 43.0583L100.376 39.3817ZM97.3156 40H71.9916V44H97.3156V40ZM71.9916 40C70.9037 40 69.8897 39.7924 68.9314 39.3817L67.3557 43.0583C68.8241 43.6876 70.3754 44 71.9916 44V40ZM68.9314 39.3817C67.9435 38.9583 67.1008 38.3888 66.3858 37.6738L63.5574 40.5022C64.645 41.5899 65.917 42.4417 67.3557 43.0583L68.9314 39.3817ZM66.4132 37.7018C65.7229 36.9839 65.1602 36.1322 64.7299 35.1282L61.0533 36.7038C61.663 38.1264 62.4869 39.3894 63.5299 40.4742L66.4132 37.7018ZM64.7299 35.1282C64.3219 34.1763 64.1116 33.1457 64.1116 32.016H60.1116C60.1116 33.6596 60.4212 35.2291 61.0533 36.7038L64.7299 35.1282ZM64.1116 32.016V15.636H60.1116V32.016H64.1116ZM64.1116 15.636C64.1116 14.5481 64.3192 13.5341 64.7299 12.5758L61.0533 11.0002C60.424 12.4685 60.1116 14.0199 60.1116 15.636H64.1116ZM64.7299 12.5758C65.1602 11.5718 65.7229 10.7201 66.4132 10.0022L63.5299 7.22978C62.4869 8.31455 61.663 9.57756 61.0533 11.0002L64.7299 12.5758ZM66.4122 10.0033C67.1252 9.26282 67.9596 8.68678 68.9314 8.27029L67.3557 4.59371C65.9009 5.21722 64.6206 6.09718 63.5309 7.22872L66.4122 10.0033ZM68.9314 8.27029C69.8897 7.8596 70.9037 7.652 71.9916 7.652V3.652C70.3754 3.652 68.8241 3.9644 67.3557 4.59371L68.9314 8.27029ZM63.6996 32.016C63.6996 33.1289 63.9011 34.2083 64.3051 35.2408L68.03 33.7832C67.8101 33.221 67.6996 32.6364 67.6996 32.016H63.6996ZM64.3468 35.3396C64.7811 36.295 65.3528 37.156 66.0632 37.9107L68.976 35.1693C68.577 34.7453 68.2474 34.2544 67.9883 33.6844L64.3468 35.3396ZM66.1488 37.9964C66.9036 38.7067 67.7646 39.2785 68.72 39.7127L70.3752 36.0713C69.8052 35.8122 69.3142 35.4826 68.8903 35.0836L66.1488 37.9964ZM68.72 39.7127C69.7516 40.1817 70.8495 40.412 71.9916 40.412V36.412C71.4003 36.412 70.8689 36.2957 70.3752 36.0713L68.72 39.7127ZM71.9916 40.412H97.3156V36.412H71.9916V40.412ZM97.3156 40.412C98.4576 40.412 99.5555 40.1817 100.587 39.7127L98.932 36.0713C98.4383 36.2957 97.9068 36.412 97.3156 36.412V40.412ZM100.557 39.7261C101.56 39.2903 102.451 38.7046 103.202 37.9542L100.373 35.1258C100.014 35.4848 99.5543 35.8004 98.9621 36.0579L100.557 39.7261ZM103.202 37.9542C103.977 37.1793 104.577 36.2806 104.991 35.2693L101.288 33.7547C101.078 34.2687 100.777 34.722 100.373 35.1258L103.202 37.9542ZM104.974 35.3095C105.429 34.2613 105.66 33.1579 105.66 32.016H101.66C101.66 32.6074 101.543 33.168 101.305 33.7145L104.974 35.3095ZM105.66 32.016V15.636H101.66V32.016H105.66ZM105.66 15.636C105.66 14.4939 105.429 13.396 104.96 12.3644L101.319 14.0196C101.543 14.5133 101.66 15.0447 101.66 15.636H105.66ZM105.002 12.4632C104.588 11.4063 103.976 10.4771 103.158 9.7076L100.417 12.6204C100.778 12.9603 101.067 13.3831 101.277 13.9208L105.002 12.4632ZM103.244 9.79327C102.474 8.9757 101.545 8.3631 100.488 7.94951L99.0308 11.6745C99.5685 11.8849 99.9913 12.1736 100.331 12.5347L103.244 9.79327ZM100.587 7.99127C99.5555 7.52235 98.4576 7.292 97.3156 7.292V11.292C97.9068 11.292 98.4383 11.4083 98.932 11.6327L100.587 7.99127ZM97.3156 7.292H71.9916V11.292H97.3156V7.292ZM71.9916 7.292C70.8495 7.292 69.7516 7.52235 68.72 7.99127L70.3752 11.6327C70.8689 11.4083 71.4003 11.292 71.9916 11.292V7.292ZM68.7903 7.96091C67.7789 8.37464 66.8803 8.97486 66.1054 9.74978L68.9338 12.5782C69.3375 12.1745 69.7909 11.8734 70.3048 11.6631L68.7903 7.96091ZM66.1053 9.74978C65.355 10.5001 64.7693 11.392 64.3334 12.3945L68.0017 13.9895C68.2592 13.3973 68.5748 12.9372 68.9338 12.5782L66.1053 9.74978ZM64.3165 12.4347C63.9011 13.4501 63.6996 14.5233 63.6996 15.636H67.6996C67.6996 15.0154 67.81 14.4593 68.0187 13.9493L64.3165 12.4347ZM63.6996 15.636V32.016H67.6996V15.636H63.6996ZM123.606 5.652L125.168 4.40261L124.568 3.652H123.606V5.652ZM140.454 26.712L138.893 27.9614L139.493 28.712H140.454V26.712ZM141.026 26.712V28.712H141.988L142.588 27.9614L141.026 26.712ZM157.874 5.652V3.652H156.913L156.313 4.40261L157.874 5.652ZM162.71 5.652L164.265 6.91086L166.904 3.652H162.71V5.652ZM142.534 30.56L140.98 29.3011L140.534 29.8516V30.56H142.534ZM142.534 42V44H144.534V42H142.534ZM138.946 42H136.946V44H138.946V42ZM138.946 30.612H140.946V29.9047L140.502 29.3547L138.946 30.612ZM118.77 5.652V3.652H114.582L117.215 6.90927L118.77 5.652ZM122.045 6.90139L138.893 27.9614L142.016 25.4626L125.168 4.40261L122.045 6.90139ZM140.454 28.712H141.026V24.712H140.454V28.712ZM142.588 27.9614L159.436 6.90139L156.313 4.40261L139.465 25.4626L142.588 27.9614ZM157.874 7.652H162.71V3.652H157.874V7.652ZM161.156 4.39313L140.98 29.3011L144.089 31.8189L164.265 6.91086L161.156 4.39313ZM140.534 30.56V42H144.534V30.56H140.534ZM142.534 40H138.946V44H142.534V40ZM140.946 42V30.612H136.946V42H140.946ZM140.502 29.3547L120.326 4.39472L117.215 6.90927L137.391 31.8693L140.502 29.3547ZM118.77 7.652H123.606V3.652H118.77V7.652ZM192.08 5.652L193.833 4.68903L193.263 3.652H192.08V5.652ZM212.048 42V44H215.429L213.801 41.037L212.048 42ZM207.94 42L206.188 42.9635L206.757 44H207.94V42ZM189.844 9.084L191.597 8.12048L189.842 4.92796L188.091 8.12261L189.844 9.084ZM171.8 42V44H172.985L173.554 42.9614L171.8 42ZM167.692 42L165.939 41.037L164.312 44H167.692V42ZM187.66 5.652V3.652H186.477L185.907 4.68903L187.66 5.652ZM190.327 6.61497L210.295 42.963L213.801 41.037L193.833 4.68903L190.327 6.61497ZM212.048 40H207.94V44H212.048V40ZM209.693 41.0365L191.597 8.12048L188.092 10.0475L206.188 42.9635L209.693 41.0365ZM188.091 8.12261L170.047 41.0386L173.554 42.9614L191.598 10.0454L188.091 8.12261ZM171.8 40H167.692V44H171.8V40ZM169.445 42.963L189.413 6.61497L185.907 4.68903L165.939 41.037L169.445 42.963ZM187.66 7.652H192.08V3.652H187.66V7.652ZM223.535 11.788L221.697 11.0002L221.697 11.0002L223.535 11.788ZM225.615 8.616L224.174 7.22872L224.173 7.22978L225.615 8.616ZM228.787 6.432L229.575 8.27029L229.575 8.27029L228.787 6.432ZM263.107 5.652L265.044 6.15008L265.686 3.652H263.107V5.652ZM262.171 9.292V11.292H263.722L264.108 9.79008L262.171 9.292ZM230.139 9.812L230.896 11.6631L230.916 11.6548L230.936 11.6461L230.139 9.812ZM228.111 11.164L226.697 9.74978L226.697 9.74978L228.111 11.164ZM226.759 13.192L224.925 12.3945L224.916 12.4145L224.908 12.4347L226.759 13.192ZM226.759 34.512L224.897 35.2408L224.916 35.2908L224.938 35.3396L226.759 34.512ZM228.111 36.54L226.655 37.9107L226.675 37.9328L226.697 37.9542L228.111 36.54ZM230.139 37.944L229.311 39.7647L229.36 39.7869L229.41 39.8065L230.139 37.944ZM260.403 37.944L261.16 39.7951L261.196 39.7806L261.231 39.7647L260.403 37.944ZM262.431 36.54L261.017 35.1258L261.017 35.1258L262.431 36.54ZM263.783 34.512L261.949 33.7145L261.94 33.7345L261.932 33.7547L263.783 34.512ZM264.303 25.62H266.303V23.62H264.303V25.62ZM241.371 25.62L239.429 25.1416L238.818 27.62H241.371V25.62ZM242.255 22.032V20.032H240.688L240.313 21.5536L242.255 22.032ZM267.839 22.032H269.839V20.032H267.839V22.032ZM267.059 35.916L268.897 36.7038L268.897 36.7038L267.059 35.916ZM264.927 39.088L263.513 37.6738L263.499 37.6876L263.485 37.7018L264.927 39.088ZM261.807 41.22L261.019 39.3817L261.009 39.3859L261 39.3902L261.807 41.22ZM225.615 39.088L224.173 40.4742L224.187 40.4884L224.201 40.5022L225.615 39.088ZM223.535 35.916L221.697 36.7038L221.697 36.7038L223.535 35.916ZM224.755 32.016V15.636H220.755V32.016H224.755ZM224.755 15.636C224.755 14.5481 224.963 13.5341 225.373 12.5758L221.697 11.0002C221.067 12.4685 220.755 14.0199 220.755 15.636H224.755ZM225.373 12.5758C225.804 11.5718 226.366 10.7201 227.057 10.0022L224.173 7.22978C223.13 8.31455 222.306 9.57756 221.697 11.0002L225.373 12.5758ZM227.056 10.0033C227.769 9.26282 228.603 8.68678 229.575 8.27029L227.999 4.59371C226.544 5.21722 225.264 6.09718 224.174 7.22872L227.056 10.0033ZM229.575 8.27029C230.533 7.8596 231.547 7.652 232.635 7.652V3.652C231.019 3.652 229.468 3.9644 227.999 4.59371L229.575 8.27029ZM232.635 7.652H263.107V3.652H232.635V7.652ZM261.17 5.15391L260.234 8.79392L264.108 9.79008L265.044 6.15008L261.17 5.15391ZM262.171 7.292H232.635V11.292H262.171V7.292ZM232.635 7.292C231.493 7.292 230.39 7.52215 229.342 7.97786L230.936 11.6461C231.483 11.4085 232.044 11.292 232.635 11.292V7.292ZM229.382 7.96091C228.37 8.37464 227.472 8.97486 226.697 9.74978L229.525 12.5782C229.929 12.1745 230.382 11.8734 230.896 11.6631L229.382 7.96091ZM226.697 9.74978C225.946 10.5001 225.361 11.392 224.925 12.3945L228.593 13.9895C228.851 13.3973 229.166 12.9372 229.525 12.5782L226.697 9.74978ZM224.908 12.4347C224.493 13.4501 224.291 14.5233 224.291 15.636H228.291C228.291 15.0154 228.401 14.4593 228.61 13.9493L224.908 12.4347ZM224.291 15.636V32.016H228.291V15.636H224.291ZM224.291 32.016C224.291 33.1289 224.493 34.2083 224.897 35.2408L228.621 33.7832C228.401 33.221 228.291 32.6364 228.291 32.016H224.291ZM224.938 35.3396C225.373 36.295 225.944 37.156 226.655 37.9107L229.567 35.1693C229.168 34.7453 228.839 34.2544 228.58 33.6844L224.938 35.3396ZM226.697 37.9542C227.457 38.714 228.332 39.3194 229.311 39.7647L230.967 36.1233C230.421 35.8753 229.944 35.5446 229.525 35.1258L226.697 37.9542ZM229.41 39.8065C230.443 40.2105 231.522 40.412 232.635 40.412V36.412C232.015 36.412 231.43 36.3015 230.868 36.0815L229.41 39.8065ZM232.635 40.412H257.907V36.412H232.635V40.412ZM257.907 40.412C259.044 40.412 260.136 40.2143 261.16 39.7951L259.646 36.0929C259.145 36.2977 258.573 36.412 257.907 36.412V40.412ZM261.231 39.7647C262.21 39.3194 263.085 38.714 263.845 37.9542L261.017 35.1258C260.598 35.5446 260.121 35.8753 259.575 36.1233L261.231 39.7647ZM263.845 37.9542C264.62 37.1793 265.22 36.2806 265.634 35.2693L261.932 33.7547C261.722 34.2687 261.421 34.722 261.017 35.1258L263.845 37.9542ZM265.617 35.3095C266.073 34.2613 266.303 33.1579 266.303 32.016H262.303C262.303 32.6074 262.186 33.168 261.949 33.7145L265.617 35.3095ZM266.303 32.016V25.62H262.303V32.016H266.303ZM264.303 23.62H241.371V27.62H264.303V23.62ZM243.313 26.0984L244.197 22.5104L240.313 21.5536L239.429 25.1416L243.313 26.0984ZM242.255 24.032H267.839V20.032H242.255V24.032ZM265.839 22.032V32.016H269.839V22.032H265.839ZM265.839 32.016C265.839 33.1457 265.629 34.1763 265.221 35.1282L268.897 36.7038C269.529 35.2291 269.839 33.6596 269.839 32.016H265.839ZM265.221 35.1282C264.797 36.1161 264.228 36.9588 263.513 37.6738L266.341 40.5022C267.429 39.4146 268.281 38.1426 268.897 36.7038L265.221 35.1282ZM263.485 37.7018C262.814 38.3996 262 38.9612 261.019 39.3817L262.595 43.0583C264.04 42.4388 265.306 41.5791 266.369 40.4742L263.485 37.7018ZM261 39.3902C260.088 39.7924 259.099 40 258.011 40V44C259.627 44 261.169 43.6876 262.614 43.0498L261 39.3902ZM258.011 40H232.635V44H258.011V40ZM232.635 40C231.547 40 230.533 39.7924 229.575 39.3817L227.999 43.0583C229.468 43.6876 231.019 44 232.635 44V40ZM229.575 39.3817C228.587 38.9583 227.744 38.3888 227.029 37.6738L224.201 40.5022C225.288 41.5899 226.56 42.4417 227.999 43.0583L229.575 39.3817ZM227.057 37.7018C226.366 36.9839 225.804 36.1322 225.373 35.1282L221.697 36.7038C222.306 38.1264 223.13 39.3894 224.173 40.4742L227.057 37.7018ZM225.373 35.1282C224.965 34.1763 224.755 33.1457 224.755 32.016H220.755C220.755 33.6596 221.065 35.2291 221.697 36.7038L225.373 35.1282ZM319.949 22.032L321.891 22.5104L322.501 20.032H319.949V22.032ZM319.065 25.62V27.62H320.632L321.007 26.0984L319.065 25.62ZM287.761 25.62V23.62H285.761V25.62H287.761ZM287.761 38.36H285.761V40.36H287.761V38.36ZM329.153 38.36L331.096 38.832L331.697 36.36H329.153V38.36ZM328.269 42V44H329.841L330.212 42.472L328.269 42ZM284.225 42H282.225V44H284.225V42ZM284.225 22.032V20.032H282.225V22.032H284.225ZM284.225 5.652V3.652H282.225V5.652H284.225ZM329.153 5.652L331.096 6.12399L331.697 3.652H329.153V5.652ZM328.269 9.292V11.292H329.841L330.212 9.76399L328.269 9.292ZM284.225 9.292H282.225V11.292H284.225V9.292ZM318.007 21.5536L317.123 25.1416L321.007 26.0984L321.891 22.5104L318.007 21.5536ZM319.065 23.62H287.761V27.62H319.065V23.62ZM285.761 25.62V38.36H289.761V25.62H285.761ZM287.761 40.36H329.153V36.36H287.761V40.36ZM327.209 37.888L326.325 41.528L330.212 42.472L331.096 38.832L327.209 37.888ZM328.269 40H284.225V44H328.269V40ZM286.225 42V22.032H282.225V42H286.225ZM284.225 24.032H319.949V20.032H284.225V24.032ZM284.225 7.652H329.153V3.652H284.225V7.652ZM327.209 5.18L326.325 8.82L330.212 9.76399L331.096 6.12399L327.209 5.18ZM328.269 7.292H284.225V11.292H328.269V7.292ZM286.225 9.292V5.652H282.225V9.292H286.225ZM344.476 26.712V24.712H342.476V26.712H344.476ZM380.72 26.036L381.515 27.8711L381.54 27.8601L381.565 27.8484L380.72 26.036ZM383.424 24.164L384.838 25.5782L383.424 24.164ZM385.296 21.356L387.14 22.1295L387.14 22.1295L385.296 21.356ZM385.296 14.596L383.461 15.3912L383.461 15.3912L385.296 14.596ZM383.424 11.84L381.978 13.2224L381.994 13.2385L382.009 13.2542L383.424 11.84ZM380.72 9.968L381.515 8.13289L381.515 8.13288L380.72 9.968ZM344.476 9.292H342.476V11.292H344.476V9.292ZM344.476 5.652V3.652H342.476V5.652H344.476ZM382.124 6.64L381.315 8.46937L381.333 8.4773L381.351 8.48488L382.124 6.64ZM385.972 9.292L384.514 10.6613L384.535 10.6841L384.557 10.7062L385.972 9.292ZM388.572 13.192L386.727 13.9643L386.734 13.9824L386.742 14.0003L388.572 13.192ZM388.572 22.76L386.742 21.9517L386.734 21.9696L386.727 21.9877L388.572 22.76ZM385.972 26.712L384.536 25.3197L384.535 25.3204L385.972 26.712ZM382.124 29.364L382.896 31.2089L382.914 31.2013L382.932 31.1934L382.124 29.364ZM372.4 30.3V28.3H366.271L371.22 31.915L372.4 30.3ZM388.416 42V44H394.544L389.595 40.385L388.416 42ZM382.488 42L381.31 43.6168L381.837 44H382.488V42ZM366.42 30.3L367.597 28.6832L367.071 28.3H366.42V30.3ZM348.064 30.3V28.3H346.064V30.3H348.064ZM348.064 42V44H350.064V42H348.064ZM344.476 42H342.476V44H344.476V42ZM344.476 28.712H377.392V24.712H344.476V28.712ZM377.392 28.712C378.833 28.712 380.214 28.4349 381.515 27.8711L379.924 24.2009C379.145 24.5384 378.308 24.712 377.392 24.712V28.712ZM381.565 27.8484C382.803 27.2708 383.9 26.516 384.838 25.5782L382.009 22.7498C381.422 23.3373 380.716 23.8305 379.874 24.2236L381.565 27.8484ZM384.838 25.5782C385.825 24.5911 386.592 23.4354 387.14 22.1295L383.451 20.5825C383.098 21.4259 382.617 22.1423 382.009 22.7498L384.838 25.5782ZM387.14 22.1295C387.695 20.807 387.972 19.4171 387.972 17.976H383.972C383.972 18.8922 383.798 19.7557 383.451 20.5825L387.14 22.1295ZM387.972 17.976C387.972 16.5087 387.698 15.1091 387.131 13.8008L383.461 15.3912C383.795 16.1629 383.972 17.0167 383.972 17.976H387.972ZM387.131 13.8008C386.581 12.531 385.814 11.4021 384.838 10.4258L382.009 13.2542C382.628 13.8726 383.109 14.581 383.461 15.3912L387.131 13.8008ZM384.869 10.4576C383.917 9.46219 382.793 8.68663 381.515 8.13289L379.924 11.8031C380.727 12.1507 381.405 12.6231 381.978 13.2224L384.869 10.4576ZM381.515 8.13288C380.214 7.5691 378.833 7.292 377.392 7.292V11.292C378.308 11.292 379.145 11.4656 379.924 11.8031L381.515 8.13288ZM377.392 7.292H344.476V11.292H377.392V7.292ZM346.476 9.292V5.652H342.476V9.292H346.476ZM344.476 7.652H377.392V3.652H344.476V7.652ZM377.392 7.652C378.783 7.652 380.085 7.92562 381.315 8.46937L382.932 4.81063C381.181 4.03704 379.328 3.652 377.392 3.652V7.652ZM381.351 8.48488C382.591 9.00361 383.638 9.7284 384.514 10.6613L387.429 7.92265C386.156 6.56759 384.638 5.52439 382.896 4.79512L381.351 8.48488ZM384.557 10.7062C385.477 11.626 386.2 12.7062 386.727 13.9643L390.417 12.4197C389.695 10.6965 388.685 9.17662 387.386 7.87779L384.557 10.7062ZM386.742 14.0003C387.284 15.2256 387.56 16.5437 387.56 17.976H391.56C391.56 16.011 391.177 14.1398 390.401 12.3837L386.742 14.0003ZM387.56 17.976C387.56 19.4083 387.284 20.7264 386.742 21.9517L390.401 23.5683C391.177 21.8122 391.56 19.941 391.56 17.976H387.56ZM386.727 21.9877C386.198 23.2513 385.469 24.3576 384.536 25.3197L387.407 28.1043C388.693 26.7784 389.697 25.25 390.417 23.5323L386.727 21.9877ZM384.535 25.3204C383.649 26.2346 382.584 26.9742 381.315 27.5346L382.932 31.1934C384.645 30.4364 386.144 29.408 387.408 28.1036L384.535 25.3204ZM381.351 27.5191C380.113 28.0377 378.799 28.3 377.392 28.3V32.3C379.313 32.3 381.153 31.9383 382.896 31.2089L381.351 27.5191ZM377.392 28.3H372.4V32.3H377.392V28.3ZM371.22 31.915L387.236 43.615L389.595 40.385L373.579 28.685L371.22 31.915ZM388.416 40H382.488V44H388.416V40ZM383.665 40.3832L367.597 28.6832L365.242 31.9168L381.31 43.6168L383.665 40.3832ZM366.42 28.3H348.064V32.3H366.42V28.3ZM346.064 30.3V42H350.064V30.3H346.064ZM348.064 40H344.476V44H348.064V40ZM346.476 42V26.712H342.476V42H346.476Z" fill="#1E1E1E"/>
</svg>
